<mxfile host="app.diagrams.net" modified="2020-04-21T12:51:24.369Z" agent="5.0 (X11)" etag="aRLSI76xjSfc6Mh_6swU" version="13.0.0" type="github">
  <diagram id="G4b_6h6ttVIJuGGbyM8B" name="Page-1">
    <mxGraphModel dx="3555" dy="1940" grid="0" gridSize="10" guides="1" tooltips="1" connect="1" arrows="1" fold="1" page="1" pageScale="1" pageWidth="1920" pageHeight="1080" math="0" shadow="0" extFonts="Ubuntu^https://fonts.googleapis.com/css?family=Ubuntu">
      <root>
        <mxCell id="0" />
        <mxCell id="1" parent="0" />
        <mxCell id="F_WY1BdWnr6XxzBKGgLg-1" value="" style="rounded=0;whiteSpace=wrap;html=1;" vertex="1" parent="1">
          <mxGeometry width="1853" height="933" as="geometry" />
        </mxCell>
        <mxCell id="YHGTjydLvxblbhcLh8xU-4" value="Operating System" style="rounded=0;whiteSpace=wrap;html=1;fontFamily=Ubuntu;fontSize=32;align=center;verticalAlign=top;spacingTop=50;" parent="1" vertex="1">
          <mxGeometry x="119" y="73" width="1682" height="720" as="geometry" />
        </mxCell>
        <mxCell id="YHGTjydLvxblbhcLh8xU-6" value="&lt;div&gt;FutureGolf&lt;/div&gt;" style="rounded=0;whiteSpace=wrap;html=1;fontFamily=Ubuntu;fontSize=32;align=center;verticalAlign=top;spacingTop=40;fillColor=#f5f5f5;strokeColor=#666666;fontColor=#333333;" parent="1" vertex="1">
          <mxGeometry x="835" y="316" width="913" height="219" as="geometry" />
        </mxCell>
        <mxCell id="YHGTjydLvxblbhcLh8xU-37" style="edgeStyle=orthogonalEdgeStyle;rounded=0;orthogonalLoop=1;jettySize=auto;html=1;exitX=1;exitY=0.25;exitDx=0;exitDy=0;fontFamily=Ubuntu;fontSize=32;" parent="1" source="YHGTjydLvxblbhcLh8xU-1" target="YHGTjydLvxblbhcLh8xU-35" edge="1">
          <mxGeometry relative="1" as="geometry" />
        </mxCell>
        <mxCell id="YHGTjydLvxblbhcLh8xU-1" value="&lt;div style=&quot;font-size: 32px&quot;&gt;&lt;font&gt;HTTP&lt;/font&gt;&lt;/div&gt;&lt;div style=&quot;font-size: 32px&quot;&gt;&lt;font&gt;Server&lt;/font&gt;&lt;/div&gt;" style="rounded=0;whiteSpace=wrap;html=1;verticalAlign=top;align=center;spacingLeft=0;spacingTop=50;fontSize=32;fontFamily=Ubuntu;FType=g;" parent="1" vertex="1">
          <mxGeometry x="893" y="379" width="280" height="280" as="geometry" />
        </mxCell>
        <mxCell id="YHGTjydLvxblbhcLh8xU-2" value="&lt;div&gt;WebSocket&lt;/div&gt;&lt;div&gt;Server&lt;br&gt;&lt;/div&gt;" style="rounded=0;whiteSpace=wrap;html=1;fontFamily=Ubuntu;fontSize=32;align=center;" parent="1" vertex="1">
          <mxGeometry x="922.5" y="554" width="221" height="147" as="geometry" />
        </mxCell>
        <mxCell id="YHGTjydLvxblbhcLh8xU-18" style="edgeStyle=orthogonalEdgeStyle;rounded=0;orthogonalLoop=1;jettySize=auto;html=1;fontFamily=Ubuntu;fontSize=32;entryX=0;entryY=0.75;entryDx=0;entryDy=0;" parent="1" source="YHGTjydLvxblbhcLh8xU-5" target="YHGTjydLvxblbhcLh8xU-1" edge="1">
          <mxGeometry relative="1" as="geometry">
            <mxPoint x="817" y="1105" as="targetPoint" />
          </mxGeometry>
        </mxCell>
        <mxCell id="YHGTjydLvxblbhcLh8xU-5" value="hostapd_cli" style="rounded=0;whiteSpace=wrap;html=1;fontFamily=Ubuntu;fontSize=32;align=center;" parent="1" vertex="1">
          <mxGeometry x="414" y="444" width="240" height="70" as="geometry" />
        </mxCell>
        <mxCell id="YHGTjydLvxblbhcLh8xU-17" style="edgeStyle=orthogonalEdgeStyle;rounded=0;orthogonalLoop=1;jettySize=auto;html=1;exitX=1;exitY=0.5;exitDx=0;exitDy=0;fontFamily=Ubuntu;fontSize=32;" parent="1" source="YHGTjydLvxblbhcLh8xU-8" target="YHGTjydLvxblbhcLh8xU-5" edge="1">
          <mxGeometry relative="1" as="geometry" />
        </mxCell>
        <mxCell id="YHGTjydLvxblbhcLh8xU-8" value="&lt;div&gt;Opening/Closing&lt;/div&gt;&lt;div&gt;Connections&lt;br&gt;&lt;/div&gt;" style="rounded=0;whiteSpace=wrap;html=1;fontFamily=Ubuntu;fontSize=32;align=center;" parent="1" vertex="1">
          <mxGeometry x="36" y="284" width="342" height="114" as="geometry" />
        </mxCell>
        <mxCell id="YHGTjydLvxblbhcLh8xU-36" style="edgeStyle=orthogonalEdgeStyle;rounded=0;orthogonalLoop=1;jettySize=auto;html=1;exitX=0;exitY=0.5;exitDx=0;exitDy=0;entryX=1;entryY=0.25;entryDx=0;entryDy=0;fontFamily=Ubuntu;fontSize=32;" parent="1" source="YHGTjydLvxblbhcLh8xU-35" target="YHGTjydLvxblbhcLh8xU-1" edge="1">
          <mxGeometry relative="1" as="geometry" />
        </mxCell>
        <mxCell id="YHGTjydLvxblbhcLh8xU-35" value="..." style="rounded=0;whiteSpace=wrap;html=1;fontFamily=Ubuntu;fontSize=32;align=center;" parent="1" vertex="1">
          <mxGeometry x="1392" y="444" width="277" height="60" as="geometry" />
        </mxCell>
        <mxCell id="YHGTjydLvxblbhcLh8xU-44" style="edgeStyle=orthogonalEdgeStyle;rounded=0;orthogonalLoop=1;jettySize=auto;html=1;exitX=1;exitY=0.25;exitDx=0;exitDy=0;entryX=0.001;entryY=0.869;entryDx=0;entryDy=0;entryPerimeter=0;fontFamily=Ubuntu;fontSize=32;" parent="1" source="YHGTjydLvxblbhcLh8xU-40" target="YHGTjydLvxblbhcLh8xU-1" edge="1">
          <mxGeometry relative="1" as="geometry" />
        </mxCell>
        <mxCell id="YHGTjydLvxblbhcLh8xU-45" style="edgeStyle=orthogonalEdgeStyle;rounded=0;orthogonalLoop=1;jettySize=auto;html=1;exitX=1;exitY=0.75;exitDx=0;exitDy=0;entryX=0.5;entryY=1;entryDx=0;entryDy=0;fontFamily=Ubuntu;fontSize=32;" parent="1" source="YHGTjydLvxblbhcLh8xU-40" target="YHGTjydLvxblbhcLh8xU-2" edge="1">
          <mxGeometry relative="1" as="geometry" />
        </mxCell>
        <mxCell id="YHGTjydLvxblbhcLh8xU-40" value="&lt;div&gt;Established&lt;/div&gt;&lt;div&gt;Connections&lt;/div&gt;" style="rounded=0;whiteSpace=wrap;html=1;fontFamily=Ubuntu;fontSize=32;align=center;" parent="1" vertex="1">
          <mxGeometry x="33.5" y="595" width="347" height="106" as="geometry" />
        </mxCell>
      </root>
    </mxGraphModel>
  </diagram>
</mxfile>
